<svg id="Layer_1" data-name="Layer 1" xmlns="http://www.w3.org/2000/svg" viewBox="0 0 300 87"><defs><style>.cls-1{fill:#304772;}.cls-2{fill:#5bbcda;}</style></defs><title>LogoSmallSVGArtboard 3</title><path class="cls-1" d="M81.27,34.19,79.94,43.5c-1.93-.63-3.14-1-3.64-1.09A14.42,14.42,0,0,0,72.79,42a10.71,10.71,0,0,0-5.56,1.3,8.14,8.14,0,0,0-3.13,3.18,7.49,7.49,0,0,0-1,3.38,6.5,6.5,0,0,0,1.36,3.85q1.36,1.86,5.47,1.86A15.27,15.27,0,0,0,74.12,55a40.28,40.28,0,0,0,5.52-2.22L78.08,62.86c-1.24.39-2.24.68-3,.86a19.25,19.25,0,0,1-2.48.39c-.9.09-1.82.14-2.77.14q-9.69,0-13.22-4.66a16,16,0,0,1-3.54-9.85,17.61,17.61,0,0,1,1.72-7.14,16,16,0,0,1,6-6.67q4.31-2.84,11.57-2.83A39.5,39.5,0,0,1,81.27,34.19Z"/><path class="cls-1" d="M111.89,34.19l-1.33,9.31c-1.93-.63-3.14-1-3.64-1.09a14.42,14.42,0,0,0-3.51-.42,10.71,10.71,0,0,0-5.56,1.3,8.14,8.14,0,0,0-3.13,3.18,7.49,7.49,0,0,0-1,3.38A6.5,6.5,0,0,0,95.1,53.7q1.37,1.86,5.47,1.86a15.27,15.27,0,0,0,4.17-.59,40.28,40.28,0,0,0,5.52-2.22L108.7,62.86c-1.24.39-2.24.68-3,.86a19.14,19.14,0,0,1-2.49.39,27.41,27.41,0,0,1-2.76.14q-9.69,0-13.22-4.66a16,16,0,0,1-3.54-9.85,17.45,17.45,0,0,1,1.72-7.14,16,16,0,0,1,6-6.67Q95.73,33.1,103,33.1A39.5,39.5,0,0,1,111.89,34.19Z"/><path class="cls-1" d="M146.82,33.63l-4.49,30.09h-9.81l.5-3.52-1.82,1.27a19.37,19.37,0,0,1-2.27,1.39,15,15,0,0,1-2.6,1,12.19,12.19,0,0,1-3.18.43,7.92,7.92,0,0,1-5-1.47,7.77,7.77,0,0,1-2.6-3.56,12.37,12.37,0,0,1-.73-4.1,30.09,30.09,0,0,1,.29-3.32l2.69-18.17h9.78L124.83,52.4a6.57,6.57,0,0,0-.06,1c0,1.89.83,2.84,2.49,2.84a5.3,5.3,0,0,0,3-1,34.92,34.92,0,0,0,4-3.4L137,33.63Z"/><path class="cls-1" d="M172.71,33.63,171.15,41h-5.83l-2,9.81a11.81,11.81,0,0,0-.23,2c0,1.68.74,2.51,2.21,2.51s3.54-.84,5.83-2.54l-.56,9.1a16.46,16.46,0,0,1-8.52,2.4,10.66,10.66,0,0,1-3.81-.7,8.15,8.15,0,0,1-3.4-2.55A8.48,8.48,0,0,1,153,55.32a18.19,18.19,0,0,1,.32-3.28l2-11h-5.55l1.33-7.39h5.61l1.16-6h9.93l-1.16,6Z"/><path class="cls-1" d="M201.65,36.17,197,45.69a11.12,11.12,0,0,0-1.78-2.37,3.35,3.35,0,0,0-2.48-1q-2.9,0-5.32,4.16l-2.54,17.21h-9.75l4.49-30.09h9.75l-.62,4.31q4.05-4.84,7.21-4.84a5.36,5.36,0,0,1,2.94.81A16,16,0,0,1,201.65,36.17Z"/><path class="cls-1" d="M232.83,34l-4.55,29.68h-9.79L219,61a19.07,19.07,0,0,1-3.33,2.38,8.62,8.62,0,0,1-4.12.87,9.37,9.37,0,0,1-5.65-1.79,11.66,11.66,0,0,1-3.78-4.77,15.76,15.76,0,0,1-1.33-6.51,19.9,19.9,0,0,1,1-6,16.09,16.09,0,0,1,3.43-5.85,17.35,17.35,0,0,1,7-4.52,30.84,30.84,0,0,1,11.08-1.73,42.92,42.92,0,0,1,4.55.2C228.93,33.44,230.62,33.69,232.83,34Zm-10.64,6.3h-1.83a8.46,8.46,0,0,0-4.87,1.5,10.35,10.35,0,0,0-3.44,4.08,12.61,12.61,0,0,0-1.24,5.56,5.75,5.75,0,0,0,1,3.47,3.43,3.43,0,0,0,3,1.44,5.88,5.88,0,0,0,2.14-.49A19.53,19.53,0,0,0,220,54.2Z"/><path class="cls-1" d="M258.72,33.63,257.15,41h-5.82l-2,9.81a11,11,0,0,0-.24,2c0,1.68.74,2.51,2.22,2.51s3.54-.84,5.82-2.54l-.56,9.1a16.45,16.45,0,0,1-8.51,2.4,10.66,10.66,0,0,1-3.81-.7,8,8,0,0,1-3.4-2.55A8.49,8.49,0,0,1,239,55.32a17.37,17.37,0,0,1,.33-3.28l2-11h-5.56l1.33-7.39h5.62l1.15-6h9.93l-1.15,6Z"/><path class="cls-1" d="M290.7,46.84a24.14,24.14,0,0,1-.42,4.4h-19q0,6.24,6.12,6.24a19.4,19.4,0,0,0,5.45-.71,60.58,60.58,0,0,0,5.75-2.07l-1.51,7.39A35.77,35.77,0,0,1,282,63.8a21.37,21.37,0,0,1-4.8.45q-6.15,0-9.66-2.28a11.75,11.75,0,0,1-4.79-5.44,16.59,16.59,0,0,1-1.27-6.26,17.88,17.88,0,0,1,2.11-8.59,16.25,16.25,0,0,1,5.85-6.26,15.65,15.65,0,0,1,8.44-2.32,13.84,13.84,0,0,1,6.43,1.5A11.28,11.28,0,0,1,289,39.21,15.32,15.32,0,0,1,290.7,46.84Zm-9.52-.92c0-.13,0-.27,0-.4s0-.32,0-.57q0-5.09-3.52-5.09a3.94,3.94,0,0,0-3.35,1.67,19.55,19.55,0,0,0-2.29,4.39Z"/><polygon class="cls-1" points="37.73 63.72 48.64 63.72 41.13 22.75 30.05 22.75 9.3 63.72 20 63.72 24.14 54.64 26.86 48.88 33.98 33.22 35.93 48.88 36.64 54.64 36.64 54.64 37.73 63.72"/><path class="cls-2" d="M30.05,22.75,9.3,63.72S79.08,33.63,111.89,34.14C55.28,33.07,17.46,69.69,30.05,22.75Z"/></svg>