<svg id="Layer_1" data-name="Layer 1" xmlns="http://www.w3.org/2000/svg" xmlns:xlink="http://www.w3.org/1999/xlink" viewBox="0 0 4000 2150"><defs><style>.cls-1{fill:none;}.cls-2{clip-path:url(#clip-path);}.cls-3{fill:url(#linear-gradient);}.cls-4{fill:url(#linear-gradient-2);}.cls-5{fill:url(#linear-gradient-3);}.cls-6{fill:url(#linear-gradient-4);}.cls-7{fill:url(#linear-gradient-5);}.cls-8{fill:url(#linear-gradient-6);}.cls-9{fill:url(#linear-gradient-7);}.cls-10{fill:url(#linear-gradient-8);}.cls-11{fill:url(#linear-gradient-9);}.cls-12{fill:url(#linear-gradient-10);}.cls-13{fill:url(#linear-gradient-11);}.cls-14{fill:url(#linear-gradient-12);}.cls-15{fill:url(#linear-gradient-13);}.cls-16{fill:url(#linear-gradient-14);}.cls-17{fill:url(#linear-gradient-15);}.cls-18{fill:url(#linear-gradient-16);}.cls-19{fill:url(#linear-gradient-17);}.cls-20{fill:url(#linear-gradient-18);}.cls-21{fill:url(#linear-gradient-19);}.cls-22{fill:url(#linear-gradient-20);}.cls-23{fill:url(#linear-gradient-21);}.cls-24{fill:url(#linear-gradient-22);}.cls-25{fill:url(#linear-gradient-23);}.cls-26{fill:url(#linear-gradient-24);}.cls-27{fill:url(#linear-gradient-25);}.cls-28{fill:url(#linear-gradient-26);}</style><clipPath id="clip-path"><rect class="cls-1" width="4000" height="2150"/></clipPath><linearGradient id="linear-gradient" x1="4339.67" y1="1016" x2="4339.67" y2="-8.41" gradientUnits="userSpaceOnUse"><stop offset="0" stop-color="#fff"/><stop offset="0.75" stop-color="#77b2e6"/></linearGradient><linearGradient id="linear-gradient-2" x1="2821" x2="2821" y2="-8.41" xlink:href="#linear-gradient"/><linearGradient id="linear-gradient-3" x1="3580.33" x2="3580.33" y2="-8.41" xlink:href="#linear-gradient"/><linearGradient id="linear-gradient-4" x1="3205" y1="1482" x2="3205" y2="457.59" xlink:href="#linear-gradient"/><linearGradient id="linear-gradient-5" x1="3933.67" y1="1482" x2="3933.67" y2="457.59" xlink:href="#linear-gradient"/><linearGradient id="linear-gradient-6" x1="4321.67" y1="2025" x2="4321.67" y2="1000.59" xlink:href="#linear-gradient"/><linearGradient id="linear-gradient-7" x1="3562.33" y1="2025" x2="3562.33" y2="1000.59" xlink:href="#linear-gradient"/><linearGradient id="linear-gradient-8" x1="3877.67" y1="2533" x2="3877.67" y2="1508.59" xlink:href="#linear-gradient"/><linearGradient id="linear-gradient-9" x1="1464.67" x2="1464.67" y2="-8.41" xlink:href="#linear-gradient"/><linearGradient id="linear-gradient-10" x1="2224" x2="2224" y2="-8.41" xlink:href="#linear-gradient"/><linearGradient id="linear-gradient-11" x1="1787.33" y1="1482" x2="1787.33" y2="457.59" xlink:href="#linear-gradient"/><linearGradient id="linear-gradient-12" x1="2516" y1="1482" x2="2516" y2="457.59" xlink:href="#linear-gradient"/><linearGradient id="linear-gradient-13" x1="2803" y1="2025" x2="2803" y2="1000.59" xlink:href="#linear-gradient"/><linearGradient id="linear-gradient-14" x1="-54" x2="-54" y2="-8.41" xlink:href="#linear-gradient"/><linearGradient id="linear-gradient-15" x1="705.33" x2="705.33" y2="-8.41" xlink:href="#linear-gradient"/><linearGradient id="linear-gradient-16" x1="330" y1="1482" x2="330" y2="457.59" xlink:href="#linear-gradient"/><linearGradient id="linear-gradient-17" x1="1058.67" y1="1482" x2="1058.67" y2="457.59" xlink:href="#linear-gradient"/><linearGradient id="linear-gradient-18" x1="1446.67" y1="2025" x2="1446.67" y2="1000.59" xlink:href="#linear-gradient"/><linearGradient id="linear-gradient-19" x1="2206" y1="2025" x2="2206" y2="1000.59" xlink:href="#linear-gradient"/><linearGradient id="linear-gradient-20" x1="1731.33" y1="2533" x2="1731.33" y2="1508.59" xlink:href="#linear-gradient"/><linearGradient id="linear-gradient-21" x1="2460" y1="2533" x2="2460" y2="1508.59" xlink:href="#linear-gradient"/><linearGradient id="linear-gradient-22" x1="-72" y1="2025" x2="-72" y2="1000.59" xlink:href="#linear-gradient"/><linearGradient id="linear-gradient-23" x1="687.33" y1="2025" x2="687.33" y2="1000.59" xlink:href="#linear-gradient"/><linearGradient id="linear-gradient-24" x1="274" y1="2533" x2="274" y2="1508.59" xlink:href="#linear-gradient"/><linearGradient id="linear-gradient-25" x1="1002.67" y1="2533" x2="1002.67" y2="1508.59" xlink:href="#linear-gradient"/><linearGradient id="linear-gradient-26" x1="3149" y1="2533" x2="3149" y2="1508.59" xlink:href="#linear-gradient"/></defs><title>backgroundArtboard 1</title><g class="cls-2"><circle class="cls-3" cx="4339.67" cy="508" r="508"/><circle class="cls-4" cx="2821" cy="508" r="508"/><circle class="cls-5" cx="3580.33" cy="508" r="508"/><circle class="cls-6" cx="3205" cy="974" r="508"/><circle class="cls-7" cx="3933.67" cy="974" r="508"/><circle class="cls-8" cx="4321.67" cy="1517" r="508"/><circle class="cls-9" cx="3562.33" cy="1517" r="508"/><circle class="cls-10" cx="3877.67" cy="2025" r="508"/><circle class="cls-11" cx="1464.67" cy="508" r="508"/><circle class="cls-12" cx="2224" cy="508" r="508"/><circle class="cls-13" cx="1787.33" cy="974" r="508"/><circle class="cls-14" cx="2516" cy="974" r="508"/><circle class="cls-15" cx="2803" cy="1517" r="508"/><circle class="cls-16" cx="-54" cy="508" r="508"/><circle class="cls-17" cx="705.33" cy="508" r="508"/><circle class="cls-18" cx="330" cy="974" r="508"/><circle class="cls-19" cx="1058.67" cy="974" r="508"/><circle class="cls-20" cx="1446.67" cy="1517" r="508"/><circle class="cls-21" cx="2206" cy="1517" r="508"/><circle class="cls-22" cx="1731.33" cy="2025" r="508"/><circle class="cls-23" cx="2460" cy="2025" r="508"/><circle class="cls-24" cx="-72" cy="1517" r="508"/><circle class="cls-25" cx="687.33" cy="1517" r="508"/><circle class="cls-26" cx="274" cy="2025" r="508"/><circle class="cls-27" cx="1002.67" cy="2025" r="508"/><circle class="cls-28" cx="3149" cy="2025" r="508"/></g></svg>